<svg viewBox="0 0 256 256" xmlns="http://www.w3.org/2000/svg"><path d="m56 100v68l72 68v-68h72l-144-136h144v68z" opacity=".2"/><path d="m128.00171 244a7.9983 7.9983 0 0 1 -5.49463-2.18408l-72-68a7.99871 7.99871 0 0 1 -2.50708-5.81592v-68a7.99993 7.99993 0 0 1 8-8h51.87817l-57.37109-54.18408a7.99982 7.99982 0 0 1 5.49292-13.81592h144a7.99993 7.99993 0 0 1 8 8v68a7.99993 7.99993 0 0 1 -8 8h-51.87817l57.37109 54.18408a7.99982 7.99982 0 0 1 -5.49292 13.81592h-64v60a7.9996 7.9996 0 0 1 -7.99829 8zm-64.00171-79.44824 56 52.88867v-49.44043a7.99993 7.99993 0 0 1 8-8h51.87817l-55.05883-52h-60.81934zm67.18066-72.55176h60.81934v-52h-115.87817z"/></svg>